<svg width="344" height="100" viewBox="0 0 344 100" fill="none" xmlns="http://www.w3.org/2000/svg">
<rect width="100" height="100" rx="20" fill="#12B644"/>
<path d="M124.273 50V71H118.909V24.4545H124.273V41.5455H124.727C125.545 39.7424 126.773 38.3106 128.409 37.25C130.061 36.1742 132.258 35.6364 135 35.6364C137.379 35.6364 139.462 36.1136 141.25 37.0682C143.038 38.0076 144.424 39.4545 145.409 41.4091C146.409 43.3485 146.909 45.8182 146.909 48.8182V71H141.545V49.1818C141.545 46.4091 140.826 44.2652 139.386 42.75C137.962 41.2197 135.985 40.4545 133.455 40.4545C131.697 40.4545 130.121 40.8258 128.727 41.5682C127.348 42.3106 126.258 43.3939 125.455 44.8182C124.667 46.2424 124.273 47.9697 124.273 50ZM166.994 71.8182C164.782 71.8182 162.775 71.4015 160.972 70.5682C159.169 69.7197 157.737 68.5 156.676 66.9091C155.616 65.303 155.085 63.3636 155.085 61.0909C155.085 59.0909 155.479 57.4697 156.267 56.2273C157.055 54.9697 158.108 53.9848 159.426 53.2727C160.744 52.5606 162.199 52.0303 163.79 51.6818C165.396 51.3182 167.009 51.0303 168.631 50.8182C170.752 50.5455 172.472 50.3409 173.79 50.2045C175.123 50.053 176.093 49.803 176.699 49.4545C177.32 49.1061 177.631 48.5 177.631 47.6364V47.4545C177.631 45.2121 177.017 43.4697 175.79 42.2273C174.578 40.9848 172.737 40.3636 170.267 40.3636C167.706 40.3636 165.699 40.9242 164.244 42.0455C162.79 43.1667 161.767 44.3636 161.176 45.6364L156.085 43.8182C156.994 41.697 158.206 40.0455 159.722 38.8636C161.252 37.6667 162.919 36.8333 164.722 36.3636C166.54 35.8788 168.328 35.6364 170.085 35.6364C171.206 35.6364 172.494 35.7727 173.949 36.0455C175.419 36.303 176.835 36.8409 178.199 37.6591C179.578 38.4773 180.722 39.7121 181.631 41.3636C182.54 43.0152 182.994 45.2273 182.994 48V71H177.631V66.2727H177.358C176.994 67.0303 176.388 67.8409 175.54 68.7045C174.691 69.5682 173.563 70.303 172.153 70.9091C170.744 71.5152 169.025 71.8182 166.994 71.8182ZM167.812 67C169.934 67 171.722 66.5833 173.176 65.75C174.646 64.9167 175.752 63.8409 176.494 62.5227C177.252 61.2045 177.631 59.8182 177.631 58.3636V53.4545C177.403 53.7273 176.903 53.9773 176.131 54.2045C175.373 54.4167 174.494 54.6061 173.494 54.7727C172.509 54.9242 171.547 55.0606 170.608 55.1818C169.684 55.2879 168.934 55.3788 168.358 55.4545C166.964 55.6364 165.661 55.9318 164.449 56.3409C163.252 56.7348 162.282 57.3333 161.54 58.1364C160.813 58.9242 160.449 60 160.449 61.3636C160.449 63.2273 161.138 64.6364 162.517 65.5909C163.911 66.5303 165.676 67 167.812 67ZM207.966 36.0909V40.6364H189.875V36.0909H207.966ZM195.148 27.7273H200.511V61C200.511 62.5152 200.731 63.6515 201.17 64.4091C201.625 65.1515 202.201 65.6515 202.898 65.9091C203.61 66.1515 204.36 66.2727 205.148 66.2727C205.739 66.2727 206.223 66.2424 206.602 66.1818C206.981 66.1061 207.284 66.0455 207.511 66L208.602 70.8182C208.239 70.9545 207.731 71.0909 207.08 71.2273C206.428 71.3788 205.602 71.4545 204.602 71.4545C203.087 71.4545 201.602 71.1288 200.148 70.4773C198.708 69.8258 197.511 68.8333 196.557 67.5C195.617 66.1667 195.148 64.4848 195.148 62.4545V27.7273ZM218.67 71H212.761L229.852 24.4545H235.67L252.761 71H246.852L232.943 31.8182H232.58L218.67 71ZM220.852 52.8182H244.67V57.8182H220.852V52.8182ZM259.284 84.0909V36.0909H264.466V41.6364H265.102C265.496 41.0303 266.042 40.2576 266.739 39.3182C267.451 38.3636 268.466 37.5152 269.784 36.7727C271.117 36.0152 272.92 35.6364 275.193 35.6364C278.133 35.6364 280.723 36.3712 282.966 37.8409C285.208 39.3106 286.958 41.3939 288.216 44.0909C289.473 46.7879 290.102 49.9697 290.102 53.6364C290.102 57.3333 289.473 60.5379 288.216 63.25C286.958 65.947 285.216 68.0379 282.989 69.5227C280.761 70.9924 278.193 71.7273 275.284 71.7273C273.042 71.7273 271.246 71.3561 269.898 70.6136C268.549 69.8561 267.511 69 266.784 68.0455C266.057 67.0758 265.496 66.2727 265.102 65.6364H264.648V84.0909H259.284ZM264.557 53.5455C264.557 56.1818 264.943 58.5076 265.716 60.5227C266.489 62.5227 267.617 64.0909 269.102 65.2273C270.587 66.3485 272.405 66.9091 274.557 66.9091C276.799 66.9091 278.67 66.3182 280.17 65.1364C281.686 63.9394 282.822 62.3333 283.58 60.3182C284.352 58.2879 284.739 56.0303 284.739 53.5455C284.739 51.0909 284.36 48.8788 283.602 46.9091C282.86 44.9242 281.731 43.3561 280.216 42.2045C278.716 41.0379 276.83 40.4545 274.557 40.4545C272.375 40.4545 270.542 41.0076 269.057 42.1136C267.572 43.2045 266.451 44.7348 265.693 46.7045C264.936 48.6591 264.557 50.9394 264.557 53.5455ZM298.284 84.0909V36.0909H303.466V41.6364H304.102C304.496 41.0303 305.042 40.2576 305.739 39.3182C306.451 38.3636 307.466 37.5152 308.784 36.7727C310.117 36.0152 311.92 35.6364 314.193 35.6364C317.133 35.6364 319.723 36.3712 321.966 37.8409C324.208 39.3106 325.958 41.3939 327.216 44.0909C328.473 46.7879 329.102 49.9697 329.102 53.6364C329.102 57.3333 328.473 60.5379 327.216 63.25C325.958 65.947 324.216 68.0379 321.989 69.5227C319.761 70.9924 317.193 71.7273 314.284 71.7273C312.042 71.7273 310.246 71.3561 308.898 70.6136C307.549 69.8561 306.511 69 305.784 68.0455C305.057 67.0758 304.496 66.2727 304.102 65.6364H303.648V84.0909H298.284ZM303.557 53.5455C303.557 56.1818 303.943 58.5076 304.716 60.5227C305.489 62.5227 306.617 64.0909 308.102 65.2273C309.587 66.3485 311.405 66.9091 313.557 66.9091C315.799 66.9091 317.67 66.3182 319.17 65.1364C320.686 63.9394 321.822 62.3333 322.58 60.3182C323.352 58.2879 323.739 56.0303 323.739 53.5455C323.739 51.0909 323.36 48.8788 322.602 46.9091C321.86 44.9242 320.731 43.3561 319.216 42.2045C317.716 41.0379 315.83 40.4545 313.557 40.4545C311.375 40.4545 309.542 41.0076 308.057 42.1136C306.572 43.2045 305.451 44.7348 304.693 46.7045C303.936 48.6591 303.557 50.9394 303.557 53.5455Z" fill="black"/>
<path d="M71.0511 42.75H61.0966C60.9148 41.4621 60.5436 40.3182 59.983 39.3182C59.4224 38.303 58.7027 37.4394 57.8239 36.7273C56.9451 36.0151 55.9299 35.4697 54.7784 35.0909C53.642 34.7121 52.4072 34.5227 51.0739 34.5227C48.6648 34.5227 46.5663 35.1212 44.7784 36.3182C42.9905 37.5 41.6042 39.2273 40.6193 41.5C39.6345 43.7576 39.142 46.5 39.142 49.7273C39.142 53.0455 39.6345 55.8333 40.6193 58.0909C41.6193 60.3485 43.0133 62.053 44.8011 63.2045C46.589 64.3561 48.6572 64.9318 51.0057 64.9318C52.3239 64.9318 53.5436 64.7576 54.6648 64.4091C55.8011 64.0606 56.8087 63.553 57.6875 62.8864C58.5663 62.2045 59.2936 61.3788 59.8693 60.4091C60.4602 59.4394 60.8693 58.3333 61.0966 57.0909L71.0511 57.1364C70.7936 59.2727 70.1496 61.3333 69.1193 63.3182C68.1042 65.2879 66.733 67.053 65.0057 68.6136C63.2936 70.1591 61.2481 71.3864 58.8693 72.2955C56.5057 73.1894 53.8314 73.6364 50.8466 73.6364C46.6951 73.6364 42.983 72.697 39.7102 70.8182C36.4527 68.9394 33.8769 66.2197 31.983 62.6591C30.1042 59.0985 29.1648 54.7879 29.1648 49.7273C29.1648 44.6515 30.1193 40.3333 32.0284 36.7727C33.9375 33.2121 36.5284 30.5 39.8011 28.6364C43.0739 26.7576 46.7557 25.8182 50.8466 25.8182C53.5436 25.8182 56.0436 26.197 58.3466 26.9545C60.6648 27.7121 62.7178 28.8182 64.5057 30.2727C66.2936 31.7121 67.7481 33.4773 68.8693 35.5682C70.0057 37.6591 70.733 40.053 71.0511 42.75Z" fill="white"/>
</svg>
