<svg width="372" height="100" viewBox="0 0 372 100" fill="none" xmlns="http://www.w3.org/2000/svg">
<rect width="100" height="100" rx="20" fill="#12B644"/>
<path d="M153.091 39H147.455C147.121 37.3788 146.538 35.9545 145.705 34.7273C144.886 33.5 143.886 32.4697 142.705 31.6364C141.538 30.7879 140.242 30.1515 138.818 29.7273C137.394 29.303 135.909 29.0909 134.364 29.0909C131.545 29.0909 128.992 29.803 126.705 31.2273C124.432 32.6515 122.621 34.75 121.273 37.5227C119.939 40.2955 119.273 43.697 119.273 47.7273C119.273 51.7576 119.939 55.1591 121.273 57.9318C122.621 60.7045 124.432 62.803 126.705 64.2273C128.992 65.6515 131.545 66.3636 134.364 66.3636C135.909 66.3636 137.394 66.1515 138.818 65.7273C140.242 65.303 141.538 64.6742 142.705 63.8409C143.886 62.9924 144.886 61.9545 145.705 60.7273C146.538 59.4848 147.121 58.0606 147.455 56.4545H153.091C152.667 58.8333 151.894 60.9621 150.773 62.8409C149.652 64.7197 148.258 66.3182 146.591 67.6364C144.924 68.9394 143.053 69.9318 140.977 70.6136C138.917 71.2955 136.712 71.6364 134.364 71.6364C130.394 71.6364 126.864 70.6667 123.773 68.7273C120.682 66.7879 118.25 64.0303 116.477 60.4545C114.705 56.8788 113.818 52.6364 113.818 47.7273C113.818 42.8182 114.705 38.5758 116.477 35C118.25 31.4242 120.682 28.6667 123.773 26.7273C126.864 24.7879 130.394 23.8182 134.364 23.8182C136.712 23.8182 138.917 24.1591 140.977 24.8409C143.053 25.5227 144.924 26.5227 146.591 27.8409C148.258 29.1439 149.652 30.7348 150.773 32.6136C151.894 34.4773 152.667 36.6061 153.091 39ZM166.835 50V71H161.472V24.4545H166.835V41.5455H167.29C168.108 39.7424 169.335 38.3106 170.972 37.25C172.623 36.1742 174.82 35.6364 177.562 35.6364C179.941 35.6364 182.025 36.1136 183.812 37.0682C185.6 38.0076 186.987 39.4545 187.972 41.4091C188.972 43.3485 189.472 45.8182 189.472 48.8182V71H184.108V49.1818C184.108 46.4091 183.388 44.2652 181.949 42.75C180.525 41.2197 178.547 40.4545 176.017 40.4545C174.259 40.4545 172.684 40.8258 171.29 41.5682C169.911 42.3106 168.82 43.3939 168.017 44.8182C167.229 46.2424 166.835 47.9697 166.835 50ZM209.557 71.8182C207.345 71.8182 205.337 71.4015 203.534 70.5682C201.731 69.7197 200.299 68.5 199.239 66.9091C198.178 65.303 197.648 63.3636 197.648 61.0909C197.648 59.0909 198.042 57.4697 198.83 56.2273C199.617 54.9697 200.67 53.9848 201.989 53.2727C203.307 52.5606 204.761 52.0303 206.352 51.6818C207.958 51.3182 209.572 51.0303 211.193 50.8182C213.314 50.5455 215.034 50.3409 216.352 50.2045C217.686 50.053 218.655 49.803 219.261 49.4545C219.883 49.1061 220.193 48.5 220.193 47.6364V47.4545C220.193 45.2121 219.58 43.4697 218.352 42.2273C217.14 40.9848 215.299 40.3636 212.83 40.3636C210.269 40.3636 208.261 40.9242 206.807 42.0455C205.352 43.1667 204.33 44.3636 203.739 45.6364L198.648 43.8182C199.557 41.697 200.769 40.0455 202.284 38.8636C203.814 37.6667 205.481 36.8333 207.284 36.3636C209.102 35.8788 210.89 35.6364 212.648 35.6364C213.769 35.6364 215.057 35.7727 216.511 36.0455C217.981 36.303 219.398 36.8409 220.761 37.6591C222.14 38.4773 223.284 39.7121 224.193 41.3636C225.102 43.0152 225.557 45.2273 225.557 48V71H220.193V66.2727H219.92C219.557 67.0303 218.951 67.8409 218.102 68.7045C217.254 69.5682 216.125 70.303 214.716 70.9091C213.307 71.5152 211.587 71.8182 209.557 71.8182ZM210.375 67C212.496 67 214.284 66.5833 215.739 65.75C217.208 64.9167 218.314 63.8409 219.057 62.5227C219.814 61.2045 220.193 59.8182 220.193 58.3636V53.4545C219.966 53.7273 219.466 53.9773 218.693 54.2045C217.936 54.4167 217.057 54.6061 216.057 54.7727C215.072 54.9242 214.11 55.0606 213.17 55.1818C212.246 55.2879 211.496 55.3788 210.92 55.4545C209.527 55.6364 208.223 55.9318 207.011 56.3409C205.814 56.7348 204.845 57.3333 204.102 58.1364C203.375 58.9242 203.011 60 203.011 61.3636C203.011 63.2273 203.701 64.6364 205.08 65.5909C206.473 66.5303 208.239 67 210.375 67ZM250.528 36.0909V40.6364H232.438V36.0909H250.528ZM237.71 27.7273H243.074V61C243.074 62.5152 243.294 63.6515 243.733 64.4091C244.188 65.1515 244.763 65.6515 245.46 65.9091C246.172 66.1515 246.922 66.2727 247.71 66.2727C248.301 66.2727 248.786 66.2424 249.165 66.1818C249.544 66.1061 249.847 66.0455 250.074 66L251.165 70.8182C250.801 70.9545 250.294 71.0909 249.642 71.2273C248.991 71.3788 248.165 71.4545 247.165 71.4545C245.65 71.4545 244.165 71.1288 242.71 70.4773C241.271 69.8258 240.074 68.8333 239.119 67.5C238.18 66.1667 237.71 64.4848 237.71 62.4545V27.7273ZM261.233 71H255.324L272.415 24.4545H278.233L295.324 71H289.415L275.506 31.8182H275.142L261.233 71ZM263.415 52.8182H287.233V57.8182H263.415V52.8182ZM301.847 84.0909V36.0909H307.028V41.6364H307.665C308.059 41.0303 308.604 40.2576 309.301 39.3182C310.013 38.3636 311.028 37.5152 312.347 36.7727C313.68 36.0152 315.483 35.6364 317.756 35.6364C320.695 35.6364 323.286 36.3712 325.528 37.8409C327.771 39.3106 329.521 41.3939 330.778 44.0909C332.036 46.7879 332.665 49.9697 332.665 53.6364C332.665 57.3333 332.036 60.5379 330.778 63.25C329.521 65.947 327.778 68.0379 325.551 69.5227C323.324 70.9924 320.756 71.7273 317.847 71.7273C315.604 71.7273 313.809 71.3561 312.46 70.6136C311.112 69.8561 310.074 69 309.347 68.0455C308.619 67.0758 308.059 66.2727 307.665 65.6364H307.21V84.0909H301.847ZM307.119 53.5455C307.119 56.1818 307.506 58.5076 308.278 60.5227C309.051 62.5227 310.18 64.0909 311.665 65.2273C313.15 66.3485 314.968 66.9091 317.119 66.9091C319.362 66.9091 321.233 66.3182 322.733 65.1364C324.248 63.9394 325.384 62.3333 326.142 60.3182C326.915 58.2879 327.301 56.0303 327.301 53.5455C327.301 51.0909 326.922 48.8788 326.165 46.9091C325.422 44.9242 324.294 43.3561 322.778 42.2045C321.278 41.0379 319.392 40.4545 317.119 40.4545C314.938 40.4545 313.104 41.0076 311.619 42.1136C310.134 43.2045 309.013 44.7348 308.256 46.7045C307.498 48.6591 307.119 50.9394 307.119 53.5455ZM340.847 84.0909V36.0909H346.028V41.6364H346.665C347.059 41.0303 347.604 40.2576 348.301 39.3182C349.013 38.3636 350.028 37.5152 351.347 36.7727C352.68 36.0152 354.483 35.6364 356.756 35.6364C359.695 35.6364 362.286 36.3712 364.528 37.8409C366.771 39.3106 368.521 41.3939 369.778 44.0909C371.036 46.7879 371.665 49.9697 371.665 53.6364C371.665 57.3333 371.036 60.5379 369.778 63.25C368.521 65.947 366.778 68.0379 364.551 69.5227C362.324 70.9924 359.756 71.7273 356.847 71.7273C354.604 71.7273 352.809 71.3561 351.46 70.6136C350.112 69.8561 349.074 69 348.347 68.0455C347.619 67.0758 347.059 66.2727 346.665 65.6364H346.21V84.0909H340.847ZM346.119 53.5455C346.119 56.1818 346.506 58.5076 347.278 60.5227C348.051 62.5227 349.18 64.0909 350.665 65.2273C352.15 66.3485 353.968 66.9091 356.119 66.9091C358.362 66.9091 360.233 66.3182 361.733 65.1364C363.248 63.9394 364.384 62.3333 365.142 60.3182C365.915 58.2879 366.301 56.0303 366.301 53.5455C366.301 51.0909 365.922 48.8788 365.165 46.9091C364.422 44.9242 363.294 43.3561 361.778 42.2045C360.278 41.0379 358.392 40.4545 356.119 40.4545C353.938 40.4545 352.104 41.0076 350.619 42.1136C349.134 43.2045 348.013 44.7348 347.256 46.7045C346.498 48.6591 346.119 50.9394 346.119 53.5455Z" fill="black"/>
<path d="M73.25 23H26.75C22.4633 23 19 26.4633 19 30.75V61.75C19 66.0367 22.4633 69.5 26.75 69.5H42.25L37.0793 85L60.3293 69.5H73.25C77.5367 69.5 81 66.0367 81 61.75V30.75C81 26.4633 77.5367 23 73.25 23ZM34.5 51.4207C31.6422 51.4207 29.3293 49.1078 29.3293 46.25C29.3293 43.3922 31.6422 41.0793 34.5 41.0793C37.3578 41.0793 39.6707 43.3922 39.6707 46.25C39.6707 49.1078 37.3578 51.4207 34.5 51.4207ZM50 51.4207C47.1422 51.4207 44.8293 49.1078 44.8293 46.25C44.8293 43.3922 47.1422 41.0793 50 41.0793C52.8578 41.0793 55.1707 43.3922 55.1707 46.25C55.1707 49.1078 52.8578 51.4207 50 51.4207ZM65.5 51.4207C62.6422 51.4207 60.3293 49.1078 60.3293 46.25C60.3293 43.3922 62.6422 41.0793 65.5 41.0793C68.3578 41.0793 70.6707 43.3922 70.6707 46.25C70.6707 49.1078 68.3578 51.4207 65.5 51.4207Z" fill="white"/>
</svg>
