<svg width="100" height="100" viewBox="0 0 100 100" fill="none" xmlns="http://www.w3.org/2000/svg">
<path d="M0 20C0 8.9543 8.95431 0 20 0H80C91.0457 0 100 8.95431 100 20V80C100 91.0457 91.0457 100 80 100H20C8.9543 100 0 91.0457 0 80V20Z" fill="#12B644"/>
<path d="M71.0511 42.75H61.0966C60.9148 41.4621 60.5436 40.3182 59.983 39.3182C59.4224 38.303 58.7027 37.4394 57.8239 36.7273C56.9451 36.0151 55.9299 35.4697 54.7784 35.0909C53.642 34.7121 52.4072 34.5227 51.0739 34.5227C48.6648 34.5227 46.5663 35.1212 44.7784 36.3182C42.9905 37.5 41.6042 39.2273 40.6193 41.5C39.6345 43.7576 39.142 46.5 39.142 49.7273C39.142 53.0455 39.6345 55.8333 40.6193 58.0909C41.6193 60.3485 43.0133 62.053 44.8011 63.2045C46.589 64.3561 48.6572 64.9318 51.0057 64.9318C52.3239 64.9318 53.5436 64.7576 54.6648 64.4091C55.8011 64.0606 56.8087 63.553 57.6875 62.8864C58.5663 62.2045 59.2936 61.3788 59.8693 60.4091C60.4602 59.4394 60.8693 58.3333 61.0966 57.0909L71.0511 57.1364C70.7936 59.2727 70.1496 61.3333 69.1193 63.3182C68.1042 65.2879 66.733 67.053 65.0057 68.6136C63.2936 70.1591 61.2481 71.3864 58.8693 72.2955C56.5057 73.1894 53.8314 73.6364 50.8466 73.6364C46.6951 73.6364 42.983 72.697 39.7102 70.8182C36.4527 68.9394 33.8769 66.2197 31.983 62.6591C30.1042 59.0985 29.1648 54.7879 29.1648 49.7273C29.1648 44.6515 30.1193 40.3333 32.0284 36.7727C33.9375 33.2121 36.5284 30.5 39.8011 28.6364C43.0739 26.7576 46.7557 25.8182 50.8466 25.8182C53.5436 25.8182 56.0436 26.197 58.3466 26.9545C60.6648 27.7121 62.7178 28.8182 64.5057 30.2727C66.2936 31.7121 67.7481 33.4773 68.8693 35.5682C70.0057 37.6591 70.733 40.053 71.0511 42.75Z" fill="white"/>
</svg>
